<svg id="Layer_1" data-name="Layer 1" xmlns="http://www.w3.org/2000/svg" viewBox="0 0 512 512"><defs><style>.cls-1{fill:#222;}</style></defs><path class="cls-1" d="M249.13,371.78a7.63,7.63,0,0,1,7.06,4.78,2.76,2.76,0,0,1-.76,3c-.9.89-2.6,1.34-5.15,1.34q-3,0-8.59-2.86a46.62,46.62,0,0,1-10.86-8,49.4,49.4,0,0,1-9.35-12.78,36.4,36.4,0,0,1-4-17.16,75.53,75.53,0,0,1,3-19.84A188.56,188.56,0,0,1,228.73,297q5.15-12.22,12-25.38t14.87-25.75q-11.43,12.6-24.22,27.29T207.93,301q-10.69,13.16-17.74,22.88t-7.05,12c0,2.05-1,2.93-3.06,2.67a32.26,32.26,0,0,1-7.44-3.81q-4-2.67-7.82-5.72a41.31,41.31,0,0,1-6.29-6.1c-1.66-2-2.48-3.7-2.48-5a42.37,42.37,0,0,1,2.09-11.26,164.58,164.58,0,0,1,5.92-16.2q3.81-9.16,8.58-19.47t10.5-21q-14.88,15.64-29,33.19T127.81,318q-12.19,17.17-22.7,32.61t-18.5,27.3q-8,11.81-13,18.87t-6.47,7.07a23.6,23.6,0,0,1-9.16-2.1,69.23,69.23,0,0,1-9.55-5,73.81,73.81,0,0,1-8.58-6.28A29.38,29.38,0,0,1,34,384c-.27-.27-.39-.45-.39-.58s-.13-.32-.39-.57a.8.8,0,0,0-.19-.58.78.78,0,0,1-.18-.57v-.37a1.53,1.53,0,0,1-.39-1.15c0-.76,2.22-4.46,6.68-11.07s10.24-15.26,17.37-25.94,15.3-23,24.6-37,18.69-28.55,28.23-43.69,18.95-30.52,28.23-46.15,17.48-30.58,24.61-44.83a407,407,0,0,0,17.36-39.29q6.68-17.94,6.67-29.39a8.55,8.55,0,0,0-2.47-6.29c-1.64-1.66-4.25-2.48-7.81-2.48q-9.89,0-24.73,6.67a174,174,0,0,0-31,18.51A309,309,0,0,0,87.8,146.69a251.74,251.74,0,0,0-29.12,33.57,186.45,186.45,0,0,0-20.93,37,97.06,97.06,0,0,0-8,37.77c0,6.61.5,11.64,1.47,15.07a32.57,32.57,0,0,0,3.11,7.83,9.34,9.34,0,0,0,3.12,3.43,2.44,2.44,0,0,1,1.46,2.28q0,3.45-6.1,3.24T19.47,282.7A41.59,41.59,0,0,1,6.12,270.3Q0,261.91,0,248.55a109.23,109.23,0,0,1,8.4-41,199.87,199.87,0,0,1,21.93-40.05,258.35,258.35,0,0,1,30.91-36.25,291.54,291.54,0,0,1,35.1-29.55,190,190,0,0,1,34.53-19.84q16.78-7.25,29.37-7.25a50.54,50.54,0,0,1,22.9,5,59.48,59.48,0,0,1,16.78,12.22,49.24,49.24,0,0,1,10.31,16,44.56,44.56,0,0,1,3.43,16q0,9.92-7.25,27.66t-19.27,40.25q-12,22.5-27.47,48.64T127.44,293.2q15.62-19.47,31.09-37.4t28.8-32.43q13.33-14.49,24.23-25t17.36-14.7c2.79-2,5-3,6.49-3a29.12,29.12,0,0,1,9.16,1.52,57,57,0,0,1,8.19,3.43,21.28,21.28,0,0,1,5.73,4.21c1.38,1.52,2.1,2.79,2.1,3.8q0,1.15-7.07,10.88t-17.17,24.42q-10.09,14.7-21.17,32.23a360.65,360.65,0,0,0-19.08,34Q210.21,276.4,225.67,259t30-32.23q14.5-14.88,27.09-26.9t21-19.65a130.83,130.83,0,0,1,12.77-12c3.68-2.92,6.56-4.38,8.59-4.38a22.77,22.77,0,0,1,8.77,1.71,29.16,29.16,0,0,1,7.25,4.19,22.67,22.67,0,0,1,4.77,5.16,8.79,8.79,0,0,1,1.72,4.2c0,.77-2.61,4.38-7.83,10.87s-11.62,14.75-19.26,24.79-16,21.38-25.18,34a438.38,438.38,0,0,0-25.18,38.72,334,334,0,0,0-19.27,38.73Q243,345.09,243,360.34a22,22,0,0,0,1.33,8.21A4.79,4.79,0,0,0,249.13,371.78Z"/><path class="cls-1" d="M512,125c0,.51-1.6,3.67-4.78,9.53s-7.44,13.43-12.78,22.69-11.38,20.11-18.11,32.43-13.68,25.26-20.81,38.74a14,14,0,0,1,3.82,5.72,19.25,19.25,0,0,1,.76,5.34c0,1.28-.51,1.53-1.52.77s-3.43-1.79-7.25-3.06Q441,256.58,431.49,276.79t-17,38.71a329.93,329.93,0,0,0-11.82,34.34q-4.4,15.84-4.39,27.29c0,3.3-1.55,4.69-4.64,4.2s-6.5-2.24-10.23-5.16a47.26,47.26,0,0,1-10.25-11.44A26.37,26.37,0,0,1,368.54,350q0-6.09,3.82-18.31t10.29-28.24q6.5-16,14.89-34.71t17.93-38.16c-2.81-.25-5.6-.37-8.4-.37H387.81a72.73,72.73,0,0,0-10.5.76q-32.88,38.53-63,75.54T259,372.74q-25.17,29.17-44.45,46.93t-30.7,17.74a28.55,28.55,0,0,1-9.74-1.9,29.6,29.6,0,0,1-8.2-4.4c-2-1.66-3.12-3.12-3.24-4.39s1.58-1.9,5.15-1.9q6.87,0,18.7-7.82a218.69,218.69,0,0,0,26.7-21.56Q228.06,381.7,245.79,363T283,323q19.46-21.39,39.68-44.65t40.06-46.16A363.12,363.12,0,0,0,319.52,240,381.07,381.07,0,0,0,282,251q-16.44,5.92-26.39,12.22T245.7,274.5a3,3,0,0,0,1.71,3.05A17.06,17.06,0,0,0,251,278.7c1.27.24,2.47.51,3.62.76a1.87,1.87,0,0,1,1.72,1.91c0,1-1,1.78-2.87,2.28a12.51,12.51,0,0,1-6.48-.19,12.24,12.24,0,0,1-6.48-4.58c-1.91-2.4-2.88-6.16-2.88-11.25,0-5.59,4.1-11.2,12.25-16.78s18.8-10.68,31.94-15.26a332.45,332.45,0,0,1,44.55-11.83,416.62,416.62,0,0,1,50.1-6.87q16-18.69,31.51-36.06t29.39-32.61q13.92-15.25,26.12-27.48t21.75-20.21l.76-.76q7.65,0,12.59,3.24a30.34,30.34,0,0,1,8,7.44,26,26,0,0,1,4.19,8.39A26.68,26.68,0,0,1,512,125Zm-109.6,90.8c3.82,0,7.37.06,10.68.18s6.49.33,9.53.58q10.69-21.75,21.18-42.17t19.26-36.43q-18.3,18.33-36.43,38t-36.05,39.87Z"/></svg>