<svg id="Layer_1" data-name="Layer 1" xmlns="http://www.w3.org/2000/svg" viewBox="0 0 512 512"><defs><style>.cls-1{fill:#6aa0e8;}</style></defs><path class="cls-1" d="M452.47,159.92v40.93c0,13.63-6.21,20.44-19.18,20.44h-26V485.94c0,13.65-7.47,20.46-21.1,20.46H346.49c-13,0-19.84-6.2-19.84-18.59V472.94c-98.56,14.87-179.71,22.92-242.94,22.92q-24.15,0-24.18-24.18V36c0-13.63,7.42-20.47,21-20.47H267.76c13,0,19.83,6.21,19.83,19.23V67.59c0,13-6.81,19.21-21,19.21H136.39V424c66.32-.61,129.55-8.05,190.26-23.55V23.59c0-11.79,6.21-18,18.63-18h40.87c14.29,0,21.1,6.2,21.1,18v119.6H433.9C446.26,143.19,452.47,148.77,452.47,159.92Z"/></svg>